<svg xmlns="http://www.w3.org/2000/svg" width="400" height="200" viewBox="0 0 400 200">
  <rect width="400" height="200" fill="#f1f5f9" rx="8" ry="8" />
  <rect x="80" y="50" width="120" height="100" fill="#e2e8f0" rx="4" ry="4" />
  <rect x="200" y="50" width="120" height="100" fill="#e2e8f0" rx="4" ry="4" />
  
  <!-- Image on left side -->
  <rect x="90" y="60" width="100" height="80" fill="#cbd5e1" rx="2" ry="2" />
  <circle cx="120" cy="80" r="10" fill="#2563eb" opacity="0.3" />
  <path d="M90,120 L130,90 L190,140" stroke="#2563eb" stroke-width="2" fill="none" />
  
  <!-- Processing arrows -->
  <path d="M160,100 L200,100" stroke="#2563eb" stroke-width="2" stroke-dasharray="4,2" />
  <polygon points="200,100 194,96 194,104" fill="#2563eb" />
  
  <!-- Processed image on right -->
  <rect x="210" y="60" width="100" height="80" fill="#cbd5e1" rx="2" ry="2" />
  <rect x="220" y="70" width="20" height="20" fill="#2563eb" opacity="0.2" />
  <rect x="250" y="70" width="20" height="20" fill="#f97316" opacity="0.2" />
  <rect x="280" y="70" width="20" height="20" fill="#22c55e" opacity="0.2" />
  <rect x="220" y="100" width="20" height="20" fill="#ef4444" opacity="0.2" />
  <rect x="250" y="100" width="20" height="20" fill="#8b5cf6" opacity="0.2" />
  <rect x="280" y="100" width="20" height="20" fill="#f59e0b" opacity="0.2" />
  
  <!-- Binary data representation -->
  <text x="200" y="170" font-family="monospace" font-size="10" text-anchor="middle" fill="#64748b">01001010 10101101 11100010</text>
</svg> 